<mxfile host="app.diagrams.net" modified="2023-04-13T10:02:35.118Z" agent="Mozilla/5.0 (Windows NT 10.0; Win64; x64) AppleWebKit/537.36 (KHTML, like Gecko) Chrome/112.0.0.0 Safari/537.36" etag="5kt_grdfKpzCXQF1t6gK" version="21.1.7" type="github">
  <diagram name="PÃ¡gina-1" id="l04WfACT7zZccR14FTFr">
    <mxGraphModel dx="2074" dy="788" grid="1" gridSize="10" guides="1" tooltips="1" connect="1" arrows="1" fold="1" page="1" pageScale="1" pageWidth="827" pageHeight="1169" math="0" shadow="0">
      <root>
        <mxCell id="0" />
        <mxCell id="1" parent="0" />
        <mxCell id="8NC9-kjkDdK_adJy2iSe-2" value="" style="html=1;verticalLabelPosition=bottom;align=center;labelBackgroundColor=none;verticalAlign=top;strokeWidth=2;strokeColor=#457B9D;shadow=0;dashed=0;shape=mxgraph.ios7.icons.cloud;fillColor=#A8DADC;fontColor=#1D3557;sketch=1;curveFitting=1;jiggle=2;" vertex="1" parent="1">
          <mxGeometry x="370" y="175" width="150" height="90" as="geometry" />
        </mxCell>
        <mxCell id="8NC9-kjkDdK_adJy2iSe-3" value="" style="shape=datastore;whiteSpace=wrap;html=1;labelBackgroundColor=none;fillColor=#A8DADC;strokeColor=#457B9D;fontColor=#1D3557;sketch=1;curveFitting=1;jiggle=2;" vertex="1" parent="1">
          <mxGeometry x="690" y="160" width="110" height="120" as="geometry" />
        </mxCell>
        <mxCell id="8NC9-kjkDdK_adJy2iSe-5" value="" style="fontColor=#1D3557;verticalAlign=top;verticalLabelPosition=bottom;labelPosition=center;align=center;html=1;outlineConnect=0;fillColor=#A8DADC;strokeColor=#457B9D;gradientDirection=north;strokeWidth=2;shape=mxgraph.networks.laptop;hachureGap=4;fontFamily=Architects Daughter;fontSource=https%3A%2F%2Ffonts.googleapis.com%2Fcss%3Ffamily%3DArchitects%2BDaughter;fontSize=20;labelBackgroundColor=none;sketch=1;curveFitting=1;jiggle=2;" vertex="1" parent="1">
          <mxGeometry x="30" y="160" width="170" height="120" as="geometry" />
        </mxCell>
        <mxCell id="8NC9-kjkDdK_adJy2iSe-7" value="" style="endArrow=classic;html=1;rounded=0;hachureGap=4;strokeColor=#457B9D;fontFamily=Architects Daughter;fontSource=https%3A%2F%2Ffonts.googleapis.com%2Fcss%3Ffamily%3DArchitects%2BDaughter;fontSize=16;fontColor=#1D3557;fillColor=#A8DADC;sketch=1;curveFitting=1;jiggle=2;strokeWidth=3;" edge="1" parent="1">
          <mxGeometry width="50" height="50" relative="1" as="geometry">
            <mxPoint x="220" y="190" as="sourcePoint" />
            <mxPoint x="340" y="190" as="targetPoint" />
          </mxGeometry>
        </mxCell>
        <mxCell id="8NC9-kjkDdK_adJy2iSe-8" value="" style="endArrow=classic;html=1;rounded=0;hachureGap=4;strokeColor=#457B9D;fontFamily=Architects Daughter;fontSource=https%3A%2F%2Ffonts.googleapis.com%2Fcss%3Ffamily%3DArchitects%2BDaughter;fontSize=16;fontColor=#1D3557;fillColor=#A8DADC;sketch=1;curveFitting=1;jiggle=2;strokeWidth=3;" edge="1" parent="1">
          <mxGeometry width="50" height="50" relative="1" as="geometry">
            <mxPoint x="540" y="190" as="sourcePoint" />
            <mxPoint x="660" y="190" as="targetPoint" />
          </mxGeometry>
        </mxCell>
        <mxCell id="8NC9-kjkDdK_adJy2iSe-10" value="" style="endArrow=classic;html=1;rounded=0;hachureGap=4;strokeColor=#457B9D;fontFamily=Architects Daughter;fontSource=https%3A%2F%2Ffonts.googleapis.com%2Fcss%3Ffamily%3DArchitects%2BDaughter;fontSize=16;fontColor=#1D3557;fillColor=#A8DADC;sketch=1;curveFitting=1;jiggle=2;strokeWidth=3;" edge="1" parent="1">
          <mxGeometry width="50" height="50" relative="1" as="geometry">
            <mxPoint x="340" y="240" as="sourcePoint" />
            <mxPoint x="220" y="240" as="targetPoint" />
          </mxGeometry>
        </mxCell>
        <mxCell id="8NC9-kjkDdK_adJy2iSe-11" value="" style="endArrow=classic;html=1;rounded=0;hachureGap=4;strokeColor=#457B9D;fontFamily=Architects Daughter;fontSource=https%3A%2F%2Ffonts.googleapis.com%2Fcss%3Ffamily%3DArchitects%2BDaughter;fontSize=16;fontColor=#1D3557;fillColor=#A8DADC;sketch=1;curveFitting=1;jiggle=2;strokeWidth=3;" edge="1" parent="1">
          <mxGeometry width="50" height="50" relative="1" as="geometry">
            <mxPoint x="660" y="240" as="sourcePoint" />
            <mxPoint x="540" y="240" as="targetPoint" />
          </mxGeometry>
        </mxCell>
        <mxCell id="8NC9-kjkDdK_adJy2iSe-12" value="Client" style="text;html=1;strokeColor=none;fillColor=none;align=center;verticalAlign=middle;whiteSpace=wrap;rounded=0;fontSize=20;fontFamily=Architects Daughter;fontColor=#1D3557;sketch=1;curveFitting=1;jiggle=2;fontStyle=1" vertex="1" parent="1">
          <mxGeometry x="85" y="290" width="60" height="30" as="geometry" />
        </mxCell>
        <mxCell id="8NC9-kjkDdK_adJy2iSe-13" value="API" style="text;html=1;strokeColor=none;fillColor=none;align=center;verticalAlign=middle;whiteSpace=wrap;rounded=0;fontSize=20;fontFamily=Architects Daughter;fontColor=#1D3557;sketch=1;curveFitting=1;jiggle=2;fontStyle=1" vertex="1" parent="1">
          <mxGeometry x="414" y="290" width="60" height="30" as="geometry" />
        </mxCell>
        <mxCell id="8NC9-kjkDdK_adJy2iSe-14" value="Database" style="text;html=1;strokeColor=none;fillColor=none;align=center;verticalAlign=middle;whiteSpace=wrap;rounded=0;fontSize=20;fontFamily=Architects Daughter;fontColor=#1D3557;sketch=1;curveFitting=1;jiggle=2;fontStyle=1" vertex="1" parent="1">
          <mxGeometry x="715" y="290" width="60" height="30" as="geometry" />
        </mxCell>
        <mxCell id="8NC9-kjkDdK_adJy2iSe-15" value="JSON, XML" style="text;html=1;strokeColor=none;fillColor=none;align=center;verticalAlign=middle;whiteSpace=wrap;rounded=0;fontSize=20;fontFamily=Architects Daughter;fontColor=#1D3557;sketch=1;curveFitting=1;jiggle=2;fontStyle=1" vertex="1" parent="1">
          <mxGeometry x="220" y="250" width="140" height="30" as="geometry" />
        </mxCell>
        <mxCell id="8NC9-kjkDdK_adJy2iSe-16" value="GET, POST, PUT, DELETE" style="text;html=1;strokeColor=none;fillColor=none;align=center;verticalAlign=middle;whiteSpace=wrap;rounded=0;fontSize=20;fontFamily=Architects Daughter;fontColor=#1D3557;sketch=1;curveFitting=1;jiggle=2;fontStyle=1" vertex="1" parent="1">
          <mxGeometry x="220" y="145" width="140" height="30" as="geometry" />
        </mxCell>
        <mxCell id="8NC9-kjkDdK_adJy2iSe-18" value="&lt;b&gt;{ . . . }&lt;/b&gt;" style="text;html=1;strokeColor=none;fillColor=none;align=center;verticalAlign=middle;whiteSpace=wrap;rounded=0;fontSize=20;fontFamily=Architects Daughter;fontColor=#1D3557;sketch=1;curveFitting=1;jiggle=2;" vertex="1" parent="1">
          <mxGeometry x="414" y="220" width="60" height="30" as="geometry" />
        </mxCell>
      </root>
    </mxGraphModel>
  </diagram>
</mxfile>
